<?xml version="1.0" encoding="utf-8"?>
<!-- Generator: Adobe Illustrator 21.0.0, SVG Export Plug-In . SVG Version: 6.00 Build 0)  -->
<svg version="1.1" id="圖層_1" xmlns="http://www.w3.org/2000/svg" xmlns:xlink="http://www.w3.org/1999/xlink" x="0px" y="0px"
	 viewBox="0 0 595.3 595.3" style="enable-background:new 0 0 595.3 595.3;" xml:space="preserve">
<style type="text/css">
	.st0{fill:#FFFFFF;}
</style>
<path class="st0" d="M509.2,88.9c-3.7-3.7-7.4-7.4-11.3-10.9C445,29.5,374.5-0.1,297.2-0.1C219.9-0.1,149.4,29.5,96.4,78
	c-0.9,0.8-1.8,1.7-2.7,2.6c-23.5,22.1-43.5,47.9-58.9,76.5c-2.1,3.9-4.1,7.8-6,11.8C10,207.8-0.5,251.5-0.5,297.5
	c0,157.8,123.5,287.3,279,297c6.2,0.4,12.4,0.6,18.7,0.6c8.1,0,16.1-0.4,24-1.1c53.7-4.3,103.5-22.9,145.4-52.1
	c15.3-10.6,29.6-22.7,42.6-35.9c52.9-53.7,85.6-127.4,85.6-208.6S562.1,142.7,509.2,88.9z M466.6,157.1H396v-36.4h70.6V157.1z
	 M353.4,157.1h-70.6v-36.4h70.6V157.1z M282.8,199.7h70.6v36.4h-70.6V199.7z M396,199.7h70.6v36.4H396V199.7z M396,78V62.5
	c10.6,4.5,20.9,9.7,30.7,15.5H396z M113.7,120.7h104.3V78h-50.5c38-22.5,82.3-35.5,129.6-35.5c19.3,0,38.1,2.2,56.2,6.3V78H240.1
	v79.1H84.5C93.1,144.1,102.9,131.9,113.7,120.7z M61.7,199.7h77.6l-95.7,70.9C46.2,245.8,52.4,222,61.7,199.7z M43.5,323.8
	l117.7-87.2v81.4h-51.5v152.2C73.4,430.7,49.3,380,43.5,323.8z M152.3,433h60.4v29.7h-60.4V433z M212.8,390.3h-60.4v-29.7h60.4
	V390.3z M149.8,505.4h105.7V317.9h-51.5V205l36.3-26.9v100.7h113.2v39.1h-74.9v233.8C230.8,548.3,186.6,531.6,149.8,505.4z
	 M321.2,462.7V433h145.4v29.7H321.2z M466.6,390.3H321.2v-29.7h145.4V390.3z M321.2,551.3v-46h123.4
	C409.1,530.6,366.9,547,321.2,551.3z M396,317.9v-39.1h113.2V156.1c27.1,40.5,42.9,89.1,42.9,141.4c0,52.3-15.8,100.9-42.9,141.4
	V317.9H396z"/>
</svg>
