<?xml version="1.0" encoding="utf-8"?>
<!-- Generator: Adobe Illustrator 21.0.0, SVG Export Plug-In . SVG Version: 6.00 Build 0)  -->
<svg version="1.1" id="圖層_1" xmlns="http://www.w3.org/2000/svg" xmlns:xlink="http://www.w3.org/1999/xlink" x="0px" y="0px"
	 viewBox="0 0 595.3 595.3" style="enable-background:new 0 0 595.3 595.3;" xml:space="preserve">
<style type="text/css">
	.st0{fill:#2EA7E0;}
	.st1{clip-path:url(#SVGID_2_);}
	.st2{fill:#FFFFFF;}
</style>
<g>
	<ellipse class="st0" cx="297.6" cy="297.6" rx="286.6" ry="286.6"/>
	<g>
		<defs>
			<ellipse id="SVGID_1_" cx="297.6" cy="297.6" rx="286.6" ry="286.6"/>
		</defs>
		<clipPath id="SVGID_2_">
			<use xlink:href="#SVGID_1_"  style="overflow:visible;"/>
		</clipPath>
		<g class="st1">
			<g>
				<g>
					<path class="st2" d="M258.1,644.3c-11.8,37.5-63.2,63.6-99.4,63.6c-25.4,0-41.1-13.1-41.1-30.5c0-19,18.8-45.4,51.1-61.9
						C218.8,589.7,272.3,599.2,258.1,644.3z"/>
					<path d="M158.6,718.9c-30.7,0-52.2-17.1-52.2-41.5c0-25,23.5-54.5,57.1-71.7c19.3-9.9,39.9-15.3,57.9-15.3
						c19.3,0,34.6,6.3,43,17.7c5.3,7.2,10.3,20,4.2,39.6C255.3,689.6,200,718.9,158.6,718.9z M221.4,612.4
						c-14.6,0-31.6,4.6-47.8,12.9c-29.3,15-45,38-45,52.1c0,11.6,12.1,19.4,30,19.4c33,0,79-24.4,88.9-55.8
						c2.7-8.6,2.4-15.3-0.9-19.8C242.6,615.6,233.4,612.4,221.4,612.4z"/>
				</g>
				<g>
					<path class="st2" d="M337.2,644.3c11.8,37.5,63.2,63.6,99.4,63.6c25.4,0,41.1-13.1,41.1-30.5c0-19-18.8-45.4-51.1-61.9
						C376.4,589.7,323,599.2,337.2,644.3z"/>
					<path d="M436.7,718.9c-41.4,0-96.7-29.3-110-71.3c-6.2-19.6-1.2-32.3,4.2-39.6c8.4-11.4,23.7-17.7,43-17.7
						c18,0,38.6,5.4,57.9,15.3c33.6,17.2,57.1,46.7,57.1,71.7C488.8,701.8,467.4,718.9,436.7,718.9z M373.8,612.4
						c-11.9,0-21.1,3.2-25.2,8.7c-3.3,4.5-3.6,11.2-0.9,19.8c9.9,31.4,55.9,55.8,88.9,55.8c18,0,30-7.8,30-19.4
						c0-14.1-15.8-37.1-45-52.1C405.4,617,388.5,612.4,373.8,612.4z"/>
				</g>
			</g>
			<g>
				<g>
					<path class="st2" d="M433.9,442.1c39.3,56.1,77.6,157,43.8,165.6c-33.9,8.5-87.5-88.5-103.2-150.6c-8.7-34.6-4.6-55.3,6.2-58
						C391.6,396.4,412,410.9,433.9,442.1z"/>
					<path d="M473.4,619.3c-44.9,0-95.9-105.4-109.6-159.5c-10.1-39.9-4.7-66.6,14.2-71.4c1.7-0.4,3.6-0.7,5.4-0.7
						c16.4,0,38.1,17.5,59.5,48.1c31.4,44.8,69.4,129.5,56,165.3c-4.3,11.5-12.5,15.8-18.6,17.3C478.1,619,475.8,619.3,473.4,619.3z
						 M383.7,409.8c-1.8,2.1-6,14.5,1.6,44.5c16.2,64.1,64.7,142.8,88.1,142.8c0.6,0,1.1-0.1,1.6-0.2c0.8-0.2,2.1-0.5,3.3-3.6
						c8.3-22.2-18.7-95.3-53.4-144.9C403.1,417.4,387.7,410,383.7,409.8z"/>
				</g>
				<g>
					<path class="st2" d="M161.4,442.1c-39.3,56.1-77.6,157-43.8,165.6c33.8,8.5,87.5-88.5,103.2-150.6c8.7-34.6,4.6-55.3-6.2-58
						C203.7,396.4,183.3,410.9,161.4,442.1z"/>
					<path d="M121.9,619.3C121.9,619.3,121.9,619.3,121.9,619.3c-2.4,0-4.8-0.3-7-0.9c-6.1-1.5-14.3-5.8-18.6-17.3
						c-13.3-35.8,24.7-120.5,56-165.3c21.4-30.5,43.1-48.1,59.5-48.1c1.9,0,3.7,0.2,5.5,0.7c19,4.8,24.3,31.5,14.2,71.4
						C217.8,513.9,166.8,619.3,121.9,619.3z M211.6,409.8c-4.1,0.3-19.5,7.7-41.2,38.6c-34.7,49.6-61.7,122.8-53.4,144.9
						c1.1,3,2.4,3.4,3.3,3.6c0.5,0.1,1,0.2,1.6,0.2c23.4,0,72-78.7,88.1-142.8C217.6,424.3,213.4,411.9,211.6,409.8z"/>
				</g>
			</g>
			<g>
				<path class="st2" d="M214,449.5c24.5-34.6,57.2-50.7,83.6-50.7c26.4,0,59.1,16.1,83.6,50.7c59.1,83.6,101.1,221.9-83.6,221.9
					S154.9,533.2,214,449.5z"/>
				<path d="M297.6,682.5c-69.8,0-115.1-19.2-134.7-57.1c-27.1-52.3,3.9-128.5,42-182.3c24.1-34.1,59.7-55.4,92.7-55.4
					c33,0,68.5,21.2,92.7,55.4c38.1,53.8,69.1,130,42,182.3C412.7,663.3,367.4,682.5,297.6,682.5z M297.6,409.9
					c-20.3,0-50.6,12.1-74.6,46c-32.7,46.3-63,115.8-40.4,159.4c15.5,29.9,54.2,45.1,115,45.1c60.8,0,99.5-15.2,115-45.1
					c22.6-43.6-7.7-113.1-40.4-159.4C348.3,422,318,409.9,297.6,409.9z"/>
			</g>
		</g>
	</g>
	<path d="M297.6,595.3C133.5,595.3,0,461.8,0,297.6C0,133.5,133.5,0,297.6,0s297.6,133.5,297.6,297.6
		C595.3,461.8,461.8,595.3,297.6,595.3z M297.6,22.1c-151.9,0-275.5,123.6-275.5,275.5c0,151.9,123.6,275.5,275.5,275.5
		c151.9,0,275.5-123.6,275.5-275.5C573.2,145.7,449.6,22.1,297.6,22.1z"/>
	<g>
		<g>
			<path class="st2" d="M544.5,295.1c0,136.3-110.5,154.7-246.8,154.7c-136.3,0-246.8-18.4-246.8-154.7
				c0-136.3,110.5-246.9,246.8-246.9C434,48.2,544.5,158.7,544.5,295.1z"/>
			<path d="M297.6,460.8c-124.8,0-257.9-12.8-257.9-165.8c0-142.2,115.7-257.9,257.9-257.9s257.9,115.7,257.9,257.9
				C555.5,448,422.4,460.8,297.6,460.8z M297.6,59.3c-130,0-235.8,105.8-235.8,235.8c0,59,21,96.7,66.1,118.5
				c45.7,22.2,111.5,25.1,169.7,25.1s124-3,169.7-25.1c45.1-21.8,66.1-59.5,66.1-118.5C533.4,165,427.7,59.3,297.6,59.3z"/>
		</g>
		<g>
			<ellipse cx="297.6" cy="368.7" rx="14.7" ry="14.7"/>
			<g>
				<path d="M191.3,336.5c0,5.6-4.5,10.1-10.1,10.1c-5.6,0-10.1-4.5-10.1-10.1c0-5.6,4.5-10.1,10.1-10.1
					C186.7,326.4,191.3,330.9,191.3,336.5z"/>
				<path d="M424.3,336.5c0,5.6-4.5,10.1-10.1,10.1c-5.6,0-10.1-4.5-10.1-10.1c0-5.6,4.5-10.1,10.1-10.1
					C419.7,326.4,424.3,330.9,424.3,336.5z"/>
			</g>
			<g>
				<path d="M304.3,369.6c1.3,2-4.2,8-12.3,13.4c-8.1,5.4-15.8,8.1-17.1,6.1c-1.3-2,4.2-8,12.3-13.4
					C295.3,370.3,303,367.6,304.3,369.6z"/>
				<ellipse transform="matrix(0.5523 -0.8336 0.8336 0.5523 -179.3711 424.6505)" cx="305.7" cy="379.3" rx="4.3" ry="17.6"/>
			</g>
		</g>
		<g>
			<g>
				<path class="st2" d="M513.2,163.5c5.6-3.6,10.5-8.5,14.1-14.7c11.8-20.4,4.8-46.6-15.6-58.3c-20.4-11.8-46.6-4.8-58.3,15.6
					c-3.6,6.2-5.4,12.9-5.7,19.5"/>
				<path d="M513.2,174.5c-3.7,0-7.2-1.8-9.3-5.1c-3.3-5.2-1.7-12,3.4-15.3c4.4-2.8,7.9-6.4,10.4-10.9c8.7-15.1,3.5-34.5-11.6-43.2
					c-7.3-4.2-15.8-5.3-24-3.2c-8.2,2.2-15,7.4-19.2,14.8c-2.6,4.4-4,9.3-4.2,14.5c-0.3,6.1-5.3,10.8-11.5,10.6
					c-6.1-0.3-10.8-5.4-10.6-11.5c0.4-8.6,2.8-17.2,7.1-24.6c7.2-12.4,18.8-21.3,32.6-25c13.9-3.7,28.4-1.8,40.8,5.4
					c25.7,14.8,34.5,47.8,19.7,73.4c-4.3,7.5-10.5,13.9-17.7,18.5C517.2,174,515.2,174.5,513.2,174.5z"/>
			</g>
			<g>
				<path class="st2" d="M82.1,163.5c-5.6-3.6-10.5-8.5-14.1-14.7c-11.8-20.4-4.8-46.6,15.6-58.3c20.4-11.8,46.6-4.8,58.4,15.6
					c3.6,6.2,5.4,12.9,5.7,19.5"/>
				<path d="M82.1,174.5c-2,0-4.1-0.6-5.9-1.7c-7.3-4.6-13.4-11-17.7-18.5c-14.8-25.7-6-58.6,19.7-73.4c25.7-14.8,58.6-6,73.4,19.7
					c4.3,7.5,6.8,16,7.1,24.6c0.3,6.1-4.5,11.2-10.6,11.5c-6.2,0.2-11.2-4.5-11.5-10.6c-0.2-5.2-1.6-10-4.2-14.5
					c-8.7-15.1-28.1-20.3-43.3-11.6c-15.1,8.7-20.3,28.1-11.6,43.2c2.6,4.4,6.1,8.1,10.4,10.9c5.2,3.3,6.7,10.1,3.4,15.3
					C89.4,172.7,85.8,174.5,82.1,174.5z"/>
			</g>
		</g>
	</g>
</g>
</svg>
